# xmcd
#
# Track frame offsets: 
#        150
#        27081
#        48707
#        75633
#
# Disc length: 1289 seconds
#
# Revision: 1
# Processed by: cddbd v1.5.2PL0 Copyright (c) Steve Scherf et al.
# Submitted via: ExactAudioCopy v1.0b3
#
DISCID=28050704
DTITLE=arcane - アウロラ／交錯点
DYEAR=2013
DGENRE=Instrumental Pop
TTITLE0=アウロラ
TTITLE1=交錯点
TTITLE2=アウロラ (Instrumental)
TTITLE3=交錯点 (Instrumental)
EXTD=
EXTT0=
EXTT1=
EXTT2=
EXTT3=
PLAYORDER=
